:version 1.10
:name ASF
:units
  mass 1
  length 1
  angle deg
:documentation
  ASF file generated by Kaydara
:root
  axis xyz
  order  tx ty tz rx ry rz
  position 0 0 0
  orientation 0 0 0
:bonedata
  begin
    id 1
    name RightUpLegDummy
    direction -1 2.30186e-007 8.31532e-007
    length 4.04083
    axis 0 0 0 xyz
  end
  begin
    id 2
    name RightUpLeg
    direction -0.000919234 -0.999985 0.00544864
    length 17.4221
    axis -3.80308 -0.00076134 -0.0523649 xyz
    dof rx ry rz
  end
  begin
    id 3
    name RightLeg
    direction -0.000919271 -0.999984 -0.00555045
    length 17.1239
    axis 4.00314 0.0181274 -0.183583 xyz
    dof rx ry rz
  end
  begin
    id 4
    name RightFoot
    direction -2.57843e-005 -4.04509e-007 1
    length 6.72091
    axis 8.18909e-005 -0.122003 -0.403008 xyz
    dof rx ry rz
  end
  begin
    id 5
    name RightToes
    direction 0.00116825 -0.014069 0.9999
    length 3.85082
    axis 0.000514414 0.540638 -0.356797 xyz
    dof rx ry rz
  end
  begin
    id 6
    name SpineDummy
    direction 0.0168869 0.966876 -0.254689
    length 6.99894
    axis 0 0 0 xyz
  end
  begin
    id 7
    name Spine
    direction -0.0132008 0.999903 0.00446247
    length 11.1999
    axis -0.00148109 0.00725429 0.756411 xyz
    dof rx ry rz
  end
  begin
    id 8
    name Spine1
    direction 0 0 0
    length 0
    axis -0.000934958 0.0245693 1.46543 xyz
    dof rx ry rz
  end
  begin
    id 9
    name HEadDummy
    direction -0.0255732 0.999672 0.00128215
    length 3.43865
    axis -0.000934958 0.0245693 1.46543 xyz
  end
  begin
    id 10
    name HEad
    direction -0.0472656 0.980052 0.19304
    length 5.12695
    axis -0.000934954 0.0245693 1.46543 xyz
    dof rx ry rz
  end
  begin
    id 11
    name LeftShoulder1Dummy
    direction 0.953098 0.301717 -0.023914
    length 3.68488
    axis -0.000934958 0.0245693 1.46543 xyz
  end
  begin
    id 12
    name LeftShoulder1
    direction 0.962466 0.271167 0.0112566
    length 3.13809
    axis -0.000934958 0.0245693 1.46543 xyz
    dof rx ry rz
  end
  begin
    id 13
    name LeftArm
    direction 0.999943 0.00455037 -0.00961766
    length 11.3419
    axis -23.1648 0.685459 1.22814 xyz
    dof rx ry rz
  end
  begin
    id 14
    name LeftForeArm
    direction 0.999332 0.0131969 0.0340885
    length 8.70632
    axis -9.90633 0.618216 0.0826942 xyz
    dof rx ry rz
  end
  begin
    id 15
    name LeftHand
    direction 0.994373 -0.0366703 0.0993905
    length 5.32135
    axis 0.00675269 0.680415 0.445699 xyz
    dof rx ry rz
  end
  begin
    id 16
    name RightShoulderDummy
    direction -0.967298 0.252589 -0.0230903
    length 3.68488
    axis -0.000934958 0.0245693 1.46543 xyz
  end
  begin
    id 17
    name RightShoulder
    direction -0.975062 0.221602 0.0120823
    length 3.13809
    axis 0.216257 0.0246515 1.45863 xyz
    dof rx ry rz
  end
  begin
    id 18
    name RightArm
    direction -0.99886 -0.00851186 -0.0469687
    length 10.3947
    axis -23.196 0.23503 -0.532632 xyz
    dof rx ry rz
  end
  begin
    id 19
    name RightForeArm
    direction -0.99909 0.00114866 0.0426317
    length 8.68355
    axis -9.91764 -0.134943 0.610517 xyz
    dof rx ry rz
  end
  begin
    id 20
    name RightHand
    direction -0.992888 -0.0489538 0.10852
    length 5.28593
    axis -0.00275396 -0.197403 0.246414 xyz
    dof rx ry rz
  end
  begin
    id 21
    name LeftUpLegDummy
    direction 1 -2.30186e-007 -8.31532e-007
    length 4.04083
    axis 0 0 0 xyz
  end
  begin
    id 22
    name LeftUpLeg
    direction -0.000920097 -1 2.79241e-006
    length 17.4221
    axis -3.48782 0.00143434 -0.0532288 xyz
    dof rx ry rz
  end
  begin
    id 23
    name LeftLeg
    direction -0.000920097 -1 2.7912e-006
    length 17.1239
    axis 3.68162 -0.00806512 -0.0529896 xyz
    dof rx ry rz
  end
  begin
    id 24
    name LeftFoot
    direction -2.57845e-005 -3.987e-007 1
    length 6.72091
    axis 3.02372e-005 -0.00147829 -0.214229 xyz
    dof rx ry rz
  end
  begin
    id 25
    name LeftToes
    direction 0.00813577 -0.00488255 0.999955
    length 3.85048
    axis 3.89895e-005 -0.0014783 -0.214229 xyz
    dof rx ry rz
  end
:hierarchy
  begin
    root RightUpLegDummy SpineDummy LeftUpLegDummy
    RightUpLegDummy RightUpLeg
    RightUpLeg RightLeg
    RightLeg RightFoot
    RightFoot RightToes
    SpineDummy Spine
    Spine Spine1
    Spine1 HEadDummy LeftShoulder1Dummy RightShoulderDummy
    HEadDummy HEad
    LeftShoulder1Dummy LeftShoulder1
    LeftShoulder1 LeftArm
    LeftArm LeftForeArm
    LeftForeArm LeftHand
    RightShoulderDummy RightShoulder
    RightShoulder RightArm
    RightArm RightForeArm
    RightForeArm RightHand
    LeftUpLegDummy LeftUpLeg
    LeftUpLeg LeftLeg
    LeftLeg LeftFoot
    LeftFoot LeftToes
  end

:SAMPLES-PER-SECOND 30
:FULLY-SPECIFIED
:DEGREES
108
root  -17.6279 34.8112 -14.9389 -173.088 0.856415 179.169
RightUpLeg  -3.013 -14.9708 -3.36774
RightLeg  1.07585 -2.66323 0.121768
RightFoot  6.72898 0.0383289 -0.143637
RightToes  -26.2486 -0.12073 -0.217269
Spine  -3.4437 0.489524 -0.956574
Spine1  -6.43672 1.24429 -1.04102
HEad  -65.4114 -3.30964 8.67145
LeftShoulder1  -1.94126e-019 -3.10601e-018 -2.51263e-017
LeftArm  19.1641 -13.8176 -82.2326
LeftForeArm  163.559 -57.5588 -163.584
LeftHand  -0.948635 0.496464 22.4301
RightShoulder  -4.96962e-017 0 -2.36833e-017
RightArm  21.5821 15.7745 81.6918
RightForeArm  -173.369 62.4636 162.572
RightHand  -0.0352896 -5.25931 -32.8548
LeftUpLeg  -4.21472 -0.449226 2.31249
LeftLeg  4.84525 15.2437 0.305275
LeftFoot  5.28935 -0.0570779 1.63479
LeftToes  -20.2609 1.7763e-006 6.54387e-008
109
root  -17.6125 34.8063 -14.961 -173.089 0.860382 179.177
RightUpLeg  -3.00382 -15.004 -3.34262
RightLeg  1.13246 -2.63243 0.117772
RightFoot  6.63954 0.0379907 -0.138804
RightToes  -26.2131 -0.12073 -0.21759
Spine  -3.2862 0.531084 -0.983511
Spine1  -6.12237 1.3158 -1.12458
HEad  -66.1091 -3.42 9.02862
LeftShoulder1  -1.94126e-019 -3.10601e-018 -2.51263e-017
LeftArm  15.5258 -11.9975 -81.8806
LeftForeArm  168.321 -55.3611 -165.204
LeftHand  -1.40872 -3.08372 19.4038
RightShoulder  -4.96962e-017 0 -2.36833e-017
RightArm  17.2206 13.8686 81.9539
RightForeArm  -167.59 60.2235 164.564
RightHand  -0.214603 -4.67442 -34.5304
LeftUpLeg  -4.27101 -0.319539 2.34805
LeftLeg  5.02802 15.1561 0.35134
LeftFoot  5.23886 -0.0554302 1.61009
LeftToes  -20.4191 1.7763e-006 6.54387e-008
110
root  -17.6007 34.7999 -14.963 -173.117 0.796341 179.188
RightUpLeg  -2.97603 -14.896 -3.31879
RightLeg  1.17198 -2.79662 0.12318
RightFoot  6.57408 0.0394572 -0.159763
RightToes  -26.1522 -0.12073 -0.217946
Spine  -3.23578 0.506207 -0.939534
Spine1  -5.95683 1.2579 -1.05637
HEad  -67.7459 -3.25968 9.20302
LeftShoulder1  -1.94126e-019 -3.10601e-018 -2.51263e-017
LeftArm  10.3759 -11.2755 -81.5809
LeftForeArm  168.048 -53.7304 -165.998
LeftHand  -1.31557 -2.85687 18.6365
RightShoulder  -4.96962e-017 0 -2.36833e-017
RightArm  9.9665 13.154 82.0104
RightForeArm  -166.004 58.154 165.879
RightHand  -0.615492 -3.13296 -31.0929
LeftUpLeg  -4.35487 -0.520119 2.37838
LeftLeg  5.26045 15.2552 0.414748
LeftFoot  5.09266 -0.0532751 1.57698
LeftToes  -20.3557 1.7763e-006 6.54387e-008
111
root  -17.5882 34.7992 -14.9854 -173.075 0.711716 179.217
RightUpLeg  -2.94598 -15.1268 -3.27127
RightLeg  1.12971 -2.64431 0.118429
RightFoot  6.56774 0.0385715 -0.147104
RightToes  -26.1864 -0.12073 -0.218336
Spine  -3.37673 0.507001 -0.881738
Spine1  -6.18907 1.268 -0.957626
HEad  -68.7112 -3.27988 8.97752
LeftShoulder1  -1.94126e-019 -3.10601e-018 -2.51263e-017
LeftArm  5.02245 -9.82489 -80.4181
LeftForeArm  165.286 -52.6962 -166.276
LeftHand  -1.20451 -1.68013 19.8378
RightShoulder  -4.96962e-017 0 -2.36833e-017
RightArm  2.7775 11.7991 80.754
RightForeArm  -170.847 56.2251 166.512
RightHand  -0.262484 -4.44272 -31.6486
LeftUpLeg  -4.39334 -0.495208 2.4356
LeftLeg  5.29215 15.1799 0.421049
LeftFoot  5.1092 -0.0530346 1.57307
LeftToes  -20.4702 1.7763e-006 6.54387e-008
112
root  -17.5778 34.7997 -15.0074 -172.963 0.562195 179.205
RightUpLeg  -2.95883 -15.3114 -3.24806
RightLeg  1.05421 -2.59791 0.119765
RightFoot  6.56706 0.0385197 -0.146365
RightToes  -26.1846 -0.12073 -0.218761
Spine  -3.49127 0.495165 -0.884806
Spine1  -6.39606 1.2375 -0.978127
HEad  -68.6254 -3.49775 8.69653
LeftShoulder1  -1.94126e-019 -3.10601e-018 -2.51263e-017
LeftArm  1.50367 -8.94761 -79.37
LeftForeArm  164.982 -52.4423 -166.371
LeftHand  -1.11903 -0.609286 21.6374
RightShoulder  -4.96962e-017 0 -2.36833e-017
RightArm  -0.646637 11.2202 79.6011
RightForeArm  -174.908 55.5993 166.51
RightHand  0.614728 -7.25065 -36.6235
LeftUpLeg  -4.46514 -0.695921 2.44573
LeftLeg  5.23888 15.2158 0.40804
LeftFoot  5.11462 -0.0531785 1.57456
LeftToes  -20.4031 1.7763e-006 6.54387e-008
113
root  -17.569 34.8006 -15.0225 -172.937 0.567871 179.192
RightUpLeg  -2.97676 -15.1346 -3.24115
RightLeg  1.09222 -2.78651 0.1266
RightFoot  6.51553 0.0396934 -0.163138
RightToes  -26.0697 -0.120729 -0.219224
Spine  -3.54166 0.430216 -0.886077
Spine1  -6.5003 1.11685 -0.978593
HEad  -68.0186 -3.37568 8.61952
LeftShoulder1  -1.94126e-019 -3.10601e-018 -2.51263e-017
LeftArm  2.54775 -9.51531 -79.473
LeftForeArm  164.37 -53.2752 -165.932
LeftHand  -1.08394 -0.268774 22.1949
RightShoulder  -4.96962e-017 0 -2.36833e-017
RightArm  2.33391 12.041 79.6045
RightForeArm  -175.42 56.7311 165.894
RightHand  0.741015 -7.52779 -38.245
LeftUpLeg  -4.37229 -0.768001 2.43962
LeftLeg  5.04875 15.3055 0.360199
LeftFoot  5.18223 -0.0550289 1.60196
LeftToes  -20.2889 1.7763e-006 6.54387e-008
114
root  -17.5613 34.8014 -15.0412 -172.974 0.673706 179.191
RightUpLeg  -2.95681 -14.8688 -3.24752
RightLeg  1.15948 -2.916 0.12906
RightFoot  6.4748 0.0401681 -0.169922
RightToes  -26.1581 -0.120729 -0.219724
Spine  -3.55393 0.415874 -0.901584
Spine1  -6.55811 1.09152 -0.974677
HEad  -67.4775 -3.45051 8.74036
LeftShoulder1  -1.94126e-019 -3.10601e-018 -2.51263e-017
LeftArm  9.45038 -11.2778 -80.4662
LeftForeArm  165.555 -55.1176 -165.101
LeftHand  -1.14685 -1.13832 20.4242
RightShoulder  -4.96962e-017 0 -2.36833e-017
RightArm  10.97 13.5461 80.4071
RightForeArm  -171.373 59.1979 164.854
RightHand  0.19685 -6.03143 -33.9719
LeftUpLeg  -4.19873 -0.70914 2.44315
LeftLeg  4.86332 15.3517 0.312174
LeftFoot  5.25816 -0.0569889 1.63043
LeftToes  -20.5111 1.7763e-006 6.54387e-008
115
root  -17.5561 34.8016 -15.0746 -173.016 0.748245 179.197
RightUpLeg  -2.88891 -14.8446 -3.25571
RightLeg  1.18586 -2.91826 0.127822
RightFoot  6.40146 0.0393231 -0.157847
RightToes  -25.9717 -0.120729 -0.220263
Spine  -3.50386 0.376923 -0.949838
Spine1  -6.53728 1.00714 -1.01155
HEad  -66.9927 -3.4959 8.91505
LeftShoulder1  -1.94126e-019 -3.10601e-018 -2.51263e-017
LeftArm  19.1129 -13.2756 -81.9271
LeftForeArm  165.556 -57.4205 -163.832
LeftHand  -1.04653 -0.559532 20.432
RightShoulder  -4.96962e-017 0 -2.36833e-017
RightArm  21.399 15.2151 81.5862
RightForeArm  -171.484 62.0348 163.039
RightHand  -0.0665626 -5.1559 -33.9181
LeftUpLeg  -4.05825 -0.519293 2.45646
LeftLeg  4.7951 15.2304 0.291841
LeftFoot  5.22928 -0.056211 1.61566
LeftToes  -20.4206 1.7763e-006 6.54387e-008
116
root  -17.5419 34.7977 -15.0896 -173.064 0.792252 179.205
RightUpLeg  -2.85083 -14.8621 -3.24509
RightLeg  1.24429 -2.84497 0.121727
RightFoot  6.32122 0.0385982 -0.147486
RightToes  -25.9161 -0.120729 -0.220843
Spine  -3.35264 0.40299 -0.960585
Spine1  -6.24549 1.05762 -1.06096
HEad  -67.5146 -3.57179 9.18375
LeftShoulder1  -1.94126e-019 -3.10601e-018 -2.51263e-017
LeftArm  15.8634 -11.4347 -81.2576
LeftForeArm  165.963 -56.0502 -164.645
LeftHand  -1.37963 -2.95705 19.2921
RightShoulder  -4.96962e-017 0 -2.36833e-017
RightArm  18.7213 13.7763 81.4963
RightForeArm  -168.475 60.8063 164.122
RightHand  -0.310473 -4.38066 -35.231
LeftUpLeg  -4.04211 -0.352141 2.48723
LeftLeg  4.92024 15.1035 0.322064
LeftFoot  5.16132 -0.0543345 1.58312
LeftToes  -20.494 1.7763e-006 6.54387e-008
117
root  -17.53 34.7927 -15.0805 -173.148 0.840164 179.218
RightUpLeg  -2.81403 -14.6934 -3.22758
RightLeg  1.30333 -2.96124 0.12365
RightFoot  6.27492 0.0396417 -0.162399
RightToes  -25.9324 -0.120729 -0.221463
Spine  -3.27439 0.426489 -0.91316
Spine1  -6.03267 1.10272 -0.991039
HEad  -69.0927 -3.67652 9.48402
LeftShoulder1  -1.94126e-019 -3.10601e-018 -2.51263e-017
LeftArm  11.4377 -10.9838 -80.0533
LeftForeArm  167.422 -55.0925 -165.266
LeftHand  -1.33068 -2.38853 19.9351
RightShoulder  -4.96962e-017 0 -2.36833e-017
RightArm  11.8637 12.8877 81.3383
RightForeArm  -166.028 59.1876 165.297
RightHand  -0.773977 -2.60239 -31.6439
LeftUpLeg  -4.06264 -0.410205 2.513
LeftLeg  5.12811 15.2013 0.378608
LeftFoot  5.09131 -0.0538312 1.57121
LeftToes  -20.6761 1.7763e-006 6.54387e-008
118
root  -17.5162 34.7916 -15.0837 -173.138 0.831268 179.246
RightUpLeg  -2.78305 -14.8658 -3.18312
RightLeg  1.23017 -2.79099 0.120108
RightFoot  6.30889 0.0389834 -0.152992
RightToes  -25.891 -0.120729 -0.222125
Spine  -3.39021 0.482485 -0.835576
Spine1  -6.20387 1.2223 -0.871085
HEad  -70.0383 -3.85506 9.35646
LeftShoulder1  -1.94126e-019 -3.10601e-018 -2.51263e-017
LeftArm  5.32369 -9.99753 -78.555
LeftForeArm  165.616 -54.0901 -165.629
LeftHand  -1.23198 -1.81317 19.9169
RightShoulder  -4.96962e-017 0 -2.36833e-017
RightArm  4.81161 11.7674 80.5497
RightForeArm  -168.847 57.9491 165.763
RightHand  -0.240071 -4.57105 -33.6253
LeftUpLeg  -4.12966 -0.481694 2.55986
LeftLeg  5.25475 15.2641 0.413484
LeftFoot  5.04635 -0.053514 1.56144
LeftToes  -20.6379 1.7763e-006 6.54387e-008
119
root  -17.5047 34.7924 -15.0937 -173.047 0.758286 179.263
RightUpLeg  -2.7868 -15.0839 -3.13362
RightLeg  1.11049 -2.6471 0.119438
RightFoot  6.37238 0.0384932 -0.145986
RightToes  -25.9312 -0.120729 -0.222831
Spine  -3.5335 0.487941 -0.794529
Spine1  -6.46014 1.23308 -0.820465
HEad  -69.8508 -4.04601 9.08307
LeftShoulder1  -1.94126e-019 -3.10601e-018 -2.51263e-017
LeftArm  0.663926 -9.59199 -77.2636
LeftForeArm  164.483 -53.3912 -165.883
LeftHand  -1.14606 -0.80051 21.4852
RightShoulder  -4.96962e-017 0 -2.36833e-017
RightArm  0.542359 11.2649 79.6136
RightForeArm  -171.653 57.2786 165.9
RightHand  0.442422 -6.71541 -36.8282
LeftUpLeg  -4.27555 -0.521652 2.60135
LeftLeg  5.37973 15.2328 0.445501
LeftFoot  4.99206 -0.0525124 1.54026
LeftToes  -20.6267 1.7763e-006 6.54387e-008
